<?xml version="1.0" standalone="no"?>
<!DOCTYPE svg PUBLIC "-//W3C//DTD SVG 20010904//EN"
 "http://www.w3.org/TR/2001/REC-SVG-20010904/DTD/svg10.dtd">
<svg version="1.0" xmlns="http://www.w3.org/2000/svg"
 width="300.000000pt" height="302.000000pt" viewBox="0 0 300.000000 302.000000"
 preserveAspectRatio="xMidYMid meet">
<metadata>
Created by potrace 1.10, written by Peter Selinger 2001-2011
</metadata>
<g transform="translate(0.000000,302.000000) scale(0.100000,-0.100000)"
fill="#000000" stroke="none">
<path d="M2680 2990 c-29 -36 -48 -83 -49 -125 -2 -43 -11 -52 -62 -57 -26 -3
-62 -16 -85 -32 l-39 -26 -3 28 c-2 16 4 61 12 101 17 79 12 102 -24 121 -16
8 -30 6 -64 -8 -73 -33 -81 -62 -107 -372 -16 -198 -26 -278 -41 -317 -11 -29
-23 -53 -28 -53 -5 0 -11 35 -13 78 -9 133 -21 189 -47 217 -33 35 -78 34
-114 -4 -29 -30 -30 -38 -21 -131 21 -206 17 -235 -29 -228 -44 7 -80 116 -95
291 -8 90 -14 115 -35 147 -34 52 -73 64 -123 39 -52 -27 -82 -69 -114 -157
l-26 -76 -27 42 c-34 55 -81 85 -120 77 -38 -7 -94 -50 -115 -87 -36 -66 -36
-66 -73 -32 -46 44 -69 54 -122 54 -69 0 -132 -34 -208 -114 l-68 -70 0 88 c0
66 -6 105 -24 159 -14 40 -28 92 -31 117 -14 90 -78 180 -153 216 -52 24 -144
16 -216 -21 -75 -38 -157 -126 -187 -202 -19 -47 -23 -76 -22 -153 1 -98 14
-164 87 -416 58 -204 60 -187 -34 -344 -138 -229 -194 -359 -241 -558 -16 -71
-19 -120 -19 -356 l0 -272 29 -85 c78 -232 250 -377 531 -449 105 -27 370 -29
446 -3 104 34 214 130 265 230 l25 48 77 6 c107 9 197 66 197 124 0 9 4 14 9
11 10 -7 38 93 46 164 16 166 37 319 46 346 5 18 19 40 29 49 19 17 21 17 41
-1 53 -48 97 -177 139 -408 52 -284 111 -421 204 -466 42 -20 46 -20 85 -4 81
32 147 145 211 359 l36 120 52 25 c68 33 120 86 168 170 21 39 41 70 44 70 4
0 12 -16 19 -36 18 -50 66 -101 108 -115 51 -16 103 2 153 53 l40 42 0 183 0
183 -25 12 c-22 10 -29 8 -55 -17 -28 -27 -30 -34 -31 -104 -1 -66 -15 -152
-18 -111 -13 165 -32 292 -45 313 -13 19 -14 30 -6 51 17 45 12 83 -17 116
-33 40 -63 52 -104 40 l-32 -9 6 57 c5 47 11 61 34 79 85 66 94 96 43 143 -19
18 -28 34 -24 44 3 9 42 35 86 57 54 29 87 53 104 78 30 44 30 52 -1 81 -21
19 -31 22 -72 17 -26 -3 -79 -20 -116 -37 -82 -37 -112 -34 -102 11 8 35 -13
74 -45 84 -12 4 -42 -1 -68 -10 l-48 -17 -72 36 c-39 20 -81 36 -92 36 -47 0
6 95 72 129 42 21 58 39 72 83 4 15 10 16 36 6 68 -23 141 26 206 138 15 27
28 50 30 52 1 2 22 -2 47 -9 58 -14 105 0 159 49 61 55 78 97 78 191 0 117
-34 181 -95 181 -23 0 -43 11 -74 40 -35 34 -48 40 -84 40 -35 0 -47 -5 -67
-30z m129 -39 c18 -17 31 -39 31 -53 0 -40 -27 -117 -55 -159 -27 -42 -25 -58
13 -92 30 -27 64 -18 85 23 15 29 17 48 11 110 -11 129 -12 125 16 125 21 0
27 -7 37 -45 30 -115 7 -224 -58 -273 -60 -44 -120 -44 -164 0 -14 13 -20 14
-23 5 -9 -27 -66 -128 -90 -160 -28 -36 -70 -62 -101 -62 -29 0 -78 46 -91 84
-15 45 -2 75 60 134 27 26 50 56 50 65 0 57 -68 -1 -116 -99 -34 -69 -36 -78
-30 -136 3 -34 11 -67 16 -72 6 -6 10 -16 10 -23 0 -17 -58 -46 -81 -40 -15 4
-23 -5 -39 -41 -50 -112 -97 -162 -154 -162 -23 0 -58 32 -69 62 -5 13 -15 7
-55 -33 -51 -51 -89 -62 -132 -39 -54 29 -92 148 -114 353 -17 164 -32 183
-74 95 -44 -96 -55 -180 -57 -426 -2 -244 -3 -251 -45 -252 -30 0 -40 23 -40
92 0 137 -50 384 -98 486 -23 49 -51 49 -74 2 -37 -75 -51 -219 -44 -456 6
-240 4 -249 -46 -242 -22 3 -23 7 -29 143 -22 498 -130 660 -294 442 -65 -85
-89 -155 -90 -257 0 -67 4 -93 21 -125 41 -78 116 -105 182 -65 41 25 62 73
62 140 0 57 -28 97 -58 84 -9 -3 -27 -9 -39 -11 -39 -9 -28 26 13 43 46 19 82
8 112 -36 44 -65 21 -174 -51 -237 -91 -80 -247 -36 -293 82 -28 74 -16 194
28 286 64 133 170 229 255 229 24 0 57 -7 73 -15 38 -20 88 -107 96 -168 10
-72 21 -65 27 17 7 101 25 153 68 198 53 56 108 47 144 -22 15 -29 48 -146 61
-215 6 -36 9 -28 24 75 9 63 24 140 33 171 28 95 92 168 136 154 38 -12 52
-49 62 -162 11 -136 25 -197 58 -264 47 -97 92 -108 142 -37 20 27 23 42 20
107 -1 48 -8 82 -17 92 -20 23 -19 25 31 39 74 21 75 18 75 -128 0 -176 20
-193 83 -67 47 95 55 138 77 405 23 294 31 322 86 340 41 14 58 6 44 -20 -9
-16 -27 -127 -54 -317 -6 -41 9 -43 22 -4 25 72 154 171 202 156 27 -8 35 -48
19 -87 -7 -17 -39 -59 -71 -93 -32 -35 -58 -68 -58 -75 0 -26 42 -70 66 -70
31 0 73 57 103 140 20 55 21 69 13 143 -11 90 -3 167 23 216 21 42 70 43 114
2z m-2181 -115 c73 -38 121 -117 158 -262 21 -83 25 -115 21 -199 -7 -176 -49
-239 -262 -390 -53 -38 -108 -84 -122 -101 l-24 -33 35 -223 c48 -295 71 -409
106 -517 79 -242 231 -451 424 -581 79 -53 204 -115 213 -106 3 2 7 41 10 85
13 179 -34 282 -241 531 -39 47 -86 106 -105 132 -28 39 -38 47 -57 42 -34 -9
-126 37 -157 78 -59 77 -75 173 -36 222 25 32 30 32 68 1 20 -17 37 -47 51
-93 13 -37 36 -92 52 -122 l29 -55 -30 34 c-17 19 -40 64 -52 100 -29 88 -45
118 -70 132 -33 17 -53 -9 -51 -70 2 -121 111 -226 201 -195 31 11 67 65 110
165 52 121 106 174 201 194 51 11 227 8 344 -7 162 -20 450 -17 585 7 l114 19
-59 52 -59 52 25 12 c21 9 36 6 99 -23 l74 -34 41 27 c23 15 81 45 129 67 l88
41 -135 113 -136 114 46 22 46 22 83 -45 84 -45 40 20 c47 24 64 26 80 8 12
-15 -1 -38 -33 -54 -16 -9 -11 -14 37 -41 l56 -32 83 39 c100 45 150 57 166
38 17 -20 -37 -67 -128 -112 -41 -21 -77 -39 -79 -41 -2 -1 -9 -30 -16 -63 -9
-46 -10 -61 -1 -61 7 0 17 5 23 11 6 6 21 8 33 4 37 -12 21 -47 -32 -72 -50
-24 -54 -34 -73 -164 -6 -42 -11 -48 -51 -67 -25 -12 -47 -22 -49 -22 -3 0 -5
79 -5 175 0 96 -2 175 -5 175 -3 0 -45 -20 -93 -44 -48 -24 -106 -49 -129 -56
-24 -7 -45 -20 -47 -29 -3 -9 -10 -42 -17 -74 -11 -53 -35 -87 -61 -87 -4 0
-8 35 -10 78 -2 63 -6 76 -18 73 -154 -39 -201 -44 -415 -45 -121 -1 -294 3
-385 8 -191 10 -253 1 -324 -45 -39 -26 -53 -46 -101 -142 -31 -62 -65 -122
-77 -134 l-20 -22 60 -73 c33 -40 108 -127 166 -193 193 -216 238 -303 240
-465 0 -52 6 -98 11 -102 15 -12 108 -9 146 3 66 22 120 92 133 174 4 22 11
130 16 240 9 222 24 291 67 324 62 49 175 7 259 -96 56 -68 83 -156 100 -318
22 -213 47 -323 98 -423 40 -79 61 -75 100 19 12 30 96 319 96 332 0 2 -19 9
-41 16 -23 7 -63 32 -90 58 -67 62 -89 124 -89 247 0 83 3 99 30 153 20 40 46
73 77 97 43 34 51 36 117 36 160 0 203 -79 160 -288 -9 -42 -26 -111 -40 -152
-13 -41 -21 -76 -19 -78 9 -9 97 72 137 125 43 59 108 190 129 262 11 38 11
44 -4 53 -29 16 -19 37 33 63 58 30 76 31 88 8 5 -10 15 -94 21 -188 13 -175
24 -235 44 -235 43 1 58 49 65 198 4 98 8 125 20 129 8 4 21 -2 29 -13 21 -27
12 -232 -12 -292 -33 -81 -108 -119 -167 -85 -49 29 -66 68 -79 183 -8 69 -15
98 -20 85 -102 -261 -172 -356 -272 -372 -21 -3 -40 -11 -42 -17 -2 -6 -16
-56 -31 -111 -117 -430 -270 -500 -380 -173 -13 39 -38 148 -55 242 -44 248
-84 358 -157 439 -32 34 -56 34 -87 1 -39 -42 -54 -108 -69 -311 -14 -170 -18
-200 -42 -249 -14 -30 -39 -68 -54 -84 -38 -39 -126 -64 -194 -56 l-51 7 -17
-44 c-62 -168 -224 -267 -438 -267 -229 0 -472 89 -601 219 -84 87 -124 157
-155 278 -23 88 -26 118 -27 288 -1 337 54 536 238 860 37 66 79 135 93 154
l25 34 -68 276 c-59 235 -69 289 -69 366 -1 77 3 98 25 145 44 93 109 154 198
186 48 17 126 17 159 0z m2228 -108 c-8 -41 -23 -57 -32 -34 -7 19 13 66 29
66 5 0 7 -14 3 -32z m-259 -181 c-17 -41 -34 -54 -50 -38 -8 8 -2 20 23 46 18
19 35 33 37 31 2 -2 -2 -20 -10 -39z m-494 -25 c28 -31 26 -64 -6 -80 -24 -12
-31 -11 -53 2 -30 20 -31 43 -2 73 26 28 40 29 61 5z m-373 -134 c0 -128 66
-304 130 -346 45 -31 105 -26 155 12 l35 27 34 -20 c18 -12 47 -21 64 -21 23
0 37 -8 52 -28 12 -16 59 -59 105 -98 46 -38 84 -75 85 -81 0 -15 -151 -93
-180 -93 -12 0 -38 9 -60 20 -55 28 -101 26 -131 -6 l-24 -25 23 -39 c12 -21
19 -41 14 -44 -19 -11 -174 -26 -280 -26 -64 0 -202 9 -307 19 -187 18 -306
18 -375 1 -86 -22 -158 -96 -205 -210 -68 -164 -99 -172 -125 -30 -6 35 -18
76 -26 91 -17 34 -61 69 -84 69 -25 0 -67 -53 -80 -101 -13 -49 -6 -90 26
-146 45 -78 100 -113 216 -137 16 -4 35 -20 49 -43 13 -21 68 -96 122 -168
132 -174 177 -266 184 -373 8 -109 4 -117 -44 -97 -123 51 -291 199 -385 340
-126 188 -171 327 -244 753 -18 111 -34 215 -34 231 0 42 29 73 143 151 56 39
121 87 145 106 l42 37 0 -79 c0 -93 22 -149 78 -207 92 -94 255 -81 332 27 14
20 28 36 33 36 4 0 7 -35 7 -77 0 -70 2 -79 27 -105 34 -36 67 -36 103 1 l29
29 -5 233 c-5 186 -3 251 10 318 8 46 19 88 24 93 25 25 89 -235 98 -400 6
-111 16 -145 50 -167 33 -22 49 -19 86 14 l33 29 -3 174 c-3 175 8 327 29 387
14 40 29 25 29 -31z m-603 -50 c22 -25 49 -99 59 -165 7 -46 1 -51 -30 -28
-32 25 -100 19 -135 -11 -37 -31 -39 -53 -7 -83 17 -16 30 -20 49 -16 22 6 27
3 33 -19 9 -38 -3 -90 -27 -112 -26 -23 -82 -23 -108 0 -35 32 -54 99 -49 170
9 102 75 226 143 268 39 23 47 23 72 -4z m1353 -799 c3 -71 10 -133 18 -146
15 -27 45 -37 71 -24 32 18 41 13 41 -23 0 -18 9 -45 20 -59 21 -26 25 -48 13
-61 -5 -4 -8 -35 -8 -69 0 -54 -6 -75 -47 -157 -80 -159 -100 -170 -74 -40 20
98 21 180 2 223 -29 69 -101 107 -200 108 -77 1 -126 -21 -180 -82 -63 -69
-80 -118 -84 -246 -4 -102 -2 -116 20 -165 32 -68 67 -110 129 -149 59 -39 59
-41 19 -190 -32 -118 -45 -149 -60 -149 -32 0 -84 195 -100 380 -19 210 -50
299 -141 395 -93 99 -214 133 -279 79 -67 -57 -79 -114 -88 -400 -7 -219 -7
-221 -34 -262 -34 -50 -76 -74 -137 -76 l-45 -1 -12 95 c-24 196 -74 276 -351
561 -99 101 -120 137 -92 155 6 3 31 49 56 100 94 193 159 216 508 187 201
-17 444 -12 564 12 46 9 90 14 97 11 9 -3 14 -20 14 -43 0 -73 50 -105 99 -65
12 9 32 46 44 82 l23 65 84 42 c47 23 90 40 95 39 6 -1 12 -57 15 -127z
m-1798 -150 c61 -110 62 -134 4 -88 -33 26 -63 84 -72 139 -11 65 13 47 68
-51z m2088 31 c29 -29 27 -90 -4 -120 -77 -71 -161 36 -87 111 34 34 63 37 91
9z"/>
<path d="M2746 2924 c-9 -24 -7 -162 3 -168 9 -6 41 84 41 115 0 22 -21 69
-31 69 -4 0 -10 -7 -13 -16z"/>
<path d="M545 2800 c-88 -20 -159 -83 -204 -180 -25 -52 -26 -63 -26 -215 1
-143 4 -176 33 -310 18 -82 36 -165 39 -182 l6 -33 55 51 c31 28 90 77 133
110 92 70 140 124 177 199 24 50 27 66 27 165 0 264 -100 428 -240 395z m114
-69 c19 -15 50 -54 68 -87 l34 -59 -3 -135 c-3 -132 -4 -137 -37 -197 -33 -62
-92 -123 -226 -236 -60 -52 -70 -57 -81 -43 -6 9 -24 93 -39 187 -47 295 -28
445 68 541 41 42 109 69 152 61 17 -2 45 -17 64 -32z"/>
<path d="M343 1744 c-192 -416 -252 -647 -240 -934 11 -254 66 -384 218 -516
179 -155 470 -200 662 -102 73 37 183 158 160 177 -4 4 -36 20 -71 34 -147 62
-323 204 -409 329 -122 178 -168 335 -234 797 -22 157 -41 290 -42 295 -2 5
-21 -31 -44 -80z m51 -224 c58 -513 143 -741 353 -941 78 -73 210 -165 287
-200 25 -11 48 -24 52 -30 12 -20 -99 -115 -162 -139 -128 -49 -317 -32 -471
42 -93 45 -199 150 -241 239 -47 98 -62 170 -69 319 -9 224 32 438 133 683 60
146 84 191 94 181 4 -5 15 -74 24 -154z"/>
<path d="M2226 1153 c-60 -62 -80 -115 -80 -213 -1 -73 3 -93 25 -135 29 -58
78 -95 124 -95 36 0 33 -7 61 145 16 94 18 185 4 237 -10 33 -68 98 -89 98 -5
0 -25 -17 -45 -37z m87 -63 c34 -65 6 -320 -36 -328 -28 -6 -66 36 -82 92 -26
87 -15 165 33 238 32 48 59 48 85 -2z"/>
</g>
</svg>
